# File created by Blade
# Date/Time:  Tue Jan 27 19:05:02 2015
# Frame Rate: 120.000 fps
#------------------------------------------------------
:FULLY-SPECIFIED
:DEGREES
3567
root -3.703865 31.397193 -5.259134 12.320265 -21.973932 1.870147
Spine -4.085014 13.236026 -12.175959
Head 15.093588 24.072969 -8.869701
LeftShoulder -22.652078 19.422801 9.657976
LeftArm 3.971311 -49.024893 -71.549010
LeftForeArm -11.326615 -0.000000 108.683353
LeftHand -12.003464 -0.000000 26.816036
LeftHandThumb1 -26.253704 0.000000 33.147579
RightShoulder 0.996776 12.824776 -10.133680
RightArm 37.862559 -64.491492 64.889794
RightForeArm -28.432608 -0.000000 28.530320
RightHand -11.932163 0.000000 14.973978
RightHandThumb1 -24.326973 -0.000000 -32.862282
LeftUpLeg -16.567722 -2.169134 -10.067544
LeftLeg 17.652274 -0.000000 -0.000000
LeftFoot -29.363313 34.712236 -18.016022
LeftToeBase 9.476434 -0.000000 -0.000000
RightUpLeg -6.486344 -54.223291 0.975363
RightLeg 95.946074 -0.000000 -0.000000
RightFoot -24.051657 -16.161707 23.319638
RightToeBase -3.581769 -0.000000 0.000000
3568
root -3.687656 31.395851 -5.272327 12.415946 -21.439928 1.941333
Spine -4.066417 13.191352 -12.079996
Head 15.161616 23.737575 -8.822225
LeftShoulder -22.509288 19.200531 9.663180
LeftArm 4.580264 -48.426796 -71.840198
LeftForeArm -11.166121 -0.000000 108.679229
LeftHand -12.071359 -0.000000 26.993843
LeftHandThumb1 -26.253704 0.000000 33.147579
RightShoulder 0.925788 12.672160 -10.159291
RightArm 37.276165 -64.282011 65.160100
RightForeArm -28.366838 -0.000000 28.367863
RightHand -12.017216 -0.000000 15.025320
RightHandThumb1 -24.326973 -0.000000 -32.862282
LeftUpLeg -16.686602 -2.710326 -10.029558
LeftLeg 17.658321 -0.000000 -0.000000
LeftFoot -29.205798 34.696450 -17.875503
LeftToeBase 9.373068 -0.000000 -0.000000
RightUpLeg -6.616211 -53.527868 0.980584
RightLeg 95.989317 -0.000000 -0.000000
RightFoot -24.015104 -15.748804 23.499494
RightToeBase -2.702080 -0.000000 0.000000
3569
root -3.676293 31.395829 -5.288770 12.545811 -20.927004 2.016383
Spine -4.112721 13.133361 -12.044671
Head 15.300094 23.427289 -8.652373
LeftShoulder -22.336590 19.002609 9.760643
LeftArm 5.104768 -47.872408 -72.135226
LeftForeArm -10.931590 0.000000 108.654751
LeftHand -12.123312 -0.000000 26.939080
LeftHandThumb1 -26.253704 0.000000 33.147579
RightShoulder 0.826979 12.460943 -10.147279
RightArm 36.837633 -64.086866 65.285540
RightForeArm -28.431059 -0.000000 28.207953
RightHand -12.160688 -0.000000 14.828474
RightHandThumb1 -24.326973 -0.000000 -32.862282
LeftUpLeg -16.842029 -3.143338 -10.002348
LeftLeg 17.667366 -0.000000 -0.000000
LeftFoot -28.968600 34.589726 -17.643886
LeftToeBase 9.304051 -0.000000 -0.000000
RightUpLeg -6.840741 -52.673940 1.056599
RightLeg 96.037387 -0.000000 -0.000000
RightFoot -23.879933 -15.482146 23.388585
RightToeBase -2.393246 -0.000000 0.000000
3570
root -3.667948 31.399537 -5.306861 12.684238 -20.368626 2.054087
Spine -4.150051 13.036731 -11.970106
Head 15.469114 23.109648 -8.432240
LeftShoulder -22.185787 18.788581 9.877802
LeftArm 5.630857 -47.220131 -72.435947
LeftForeArm -10.704691 -0.000000 108.605550
LeftHand -12.079745 0.000000 26.899632
LeftHandThumb1 -26.253704 0.000000 33.147579
RightShoulder 0.705928 12.225043 -10.108688
RightArm 36.202785 -63.763796 65.634431
RightForeArm -28.631878 -0.000000 27.991339
RightHand -12.076915 -0.000000 14.732257
RightHandThumb1 -24.326973 -0.000000 -32.862282
LeftUpLeg -16.992700 -3.589573 -9.916213
LeftLeg 17.667055 -0.000000 -0.000000
LeftFoot -28.820715 34.465123 -17.571343
LeftToeBase 9.297432 -0.000000 -0.000000
RightUpLeg -7.137208 -51.687135 1.206993
RightLeg 96.093807 -0.000000 -0.000000
RightFoot -23.737876 -15.295298 23.454218
RightToeBase -2.192968 -0.000000 0.000000
3571
root -3.655602 31.402993 -5.327077 12.803871 -19.849696 2.101999
Spine -4.161548 12.953525 -11.904998
Head 15.601237 22.737027 -8.229811
LeftShoulder -22.014279 18.672699 9.980796
LeftArm 6.225386 -46.658592 -72.836131
LeftForeArm -10.434199 0.000000 108.557963
LeftHand -12.080673 0.000000 26.963897
LeftHandThumb1 -26.253704 0.000000 33.147579
RightShoulder 0.533947 11.925373 -10.090840
RightArm 35.751903 -63.419574 65.806298
RightForeArm -28.643616 -0.000000 27.877403
RightHand -12.135875 -0.000000 14.571519
RightHandThumb1 -24.326973 -0.000000 -32.862282
LeftUpLeg -17.121042 -3.946844 -9.865589
LeftLeg 17.629854 -0.000000 -0.000000
LeftFoot -28.618781 34.286007 -17.417543
LeftToeBase 9.271519 -0.000000 -0.000000
RightUpLeg -7.352660 -50.554815 1.247806
RightLeg 96.172657 -0.000000 -0.000000
RightFoot -23.602366 -15.045897 23.387686
RightToeBase -2.379557 -0.000000 0.000000
3572
root -3.644409 31.405605 -5.342015 12.900300 -19.331172 2.172117
Spine -4.167923 12.807650 -11.859505
Head 15.733733 22.392245 -8.005119
LeftShoulder -21.889713 18.551900 10.094756
LeftArm 6.766624 -46.079857 -73.180744
LeftForeArm -10.321905 0.000000 108.495771
LeftHand -12.062624 -0.000000 26.994233
LeftHandThumb1 -26.253704 0.000000 33.147579
RightShoulder 0.355364 11.634369 -10.056636
RightArm 35.310313 -62.996568 66.022445
RightForeArm -28.501257 -0.000000 27.728602
RightHand -12.162553 0.000000 14.961866
RightHandThumb1 -24.326973 -0.000000 -32.862282
LeftUpLeg -17.218547 -4.297969 -9.839050
LeftLeg 17.600885 -0.000000 -0.000000
LeftFoot -28.415834 34.093732 -17.276420
LeftToeBase 9.201248 -0.000000 -0.000000
RightUpLeg -7.464301 -49.303779 1.159510
RightLeg 96.242764 -0.000000 -0.000000
RightFoot -23.330762 -14.849620 23.022749
RightToeBase -3.049315 -0.000000 0.000000
3573
root -3.637724 31.409363 -5.350100 12.996482 -18.781135 2.234050
Spine -4.203001 12.671315 -11.827888
Head 15.912819 21.986395 -7.702368
LeftShoulder -21.699710 18.398506 10.288775
LeftArm 7.240811 -45.511539 -73.512427
LeftForeArm -10.173150 -0.000000 108.434952
LeftHand -12.148263 -0.000000 27.077932
LeftHandThumb1 -26.253704 0.000000 33.147579
RightShoulder 0.086902 11.368699 -10.029729
RightArm 34.492393 -62.601506 66.591833
RightForeArm -28.863154 0.000000 27.640392
RightHand -12.237551 -0.000000 14.806440
RightHandThumb1 -24.326973 -0.000000 -32.862282
LeftUpLeg -17.280751 -4.557852 -9.816050
LeftLeg 17.531440 -0.000000 -0.000000
LeftFoot -28.183469 33.822452 -17.086094
LeftToeBase 9.162570 -0.000000 -0.000000
RightUpLeg -7.562786 -47.893461 1.073549
RightLeg 96.300168 -0.000000 -0.000000
RightFoot -23.142286 -14.671377 22.711238
RightToeBase -3.094905 -0.000000 0.000000
3574
root -3.630134 31.416053 -5.368880 13.102643 -18.280741 2.246187
Spine -4.195841 12.494982 -11.723090
Head 16.038141 21.640800 -7.488161
LeftShoulder -21.501073 18.196326 10.446542
LeftArm 7.530563 -44.993631 -73.702671
LeftForeArm -9.985658 -0.000000 108.366738
LeftHand -12.101592 -0.000000 27.323727
LeftHandThumb1 -26.253704 0.000000 33.147579
RightShoulder -0.153483 11.103810 -10.010378
RightArm 34.062840 -62.262567 66.784580
RightForeArm -29.068411 -0.000000 27.524064
RightHand -12.181812 -0.000000 14.685702
RightHandThumb1 -24.326973 -0.000000 -32.862282
LeftUpLeg -17.388514 -4.733621 -9.757495
LeftLeg 17.515743 -0.000000 -0.000000
LeftFoot -28.006690 33.500600 -16.974171
LeftToeBase 9.248967 -0.000000 -0.000000
RightUpLeg -7.726711 -46.258925 1.047481
RightLeg 96.401527 -0.000000 -0.000000
RightFoot -23.015579 -14.498716 22.566316
RightToeBase -3.382982 -0.000000 0.000000
3575
root -3.614386 31.423457 -5.392302 13.259592 -17.771815 2.299034
Spine -4.251372 12.273824 -11.651918
Head 16.183482 21.251195 -7.270775
LeftShoulder -21.306904 18.043353 10.583965
LeftArm 7.843660 -44.527578 -73.917209
LeftForeArm -9.791285 -0.000000 108.299670
LeftHand -12.104398 -0.000000 27.269454
LeftHandThumb1 -26.253704 0.000000 33.147579
RightShoulder -0.421804 10.806514 -10.018984
RightArm 33.729852 -61.907107 66.882998
RightForeArm -29.016860 -0.000000 27.480896
RightHand -12.229021 0.000000 14.674482
RightHandThumb1 -24.326973 -0.000000 -32.862282
LeftUpLeg -17.488898 -5.076896 -9.699607
LeftLeg 17.338603 -0.000000 -0.000000
LeftFoot -27.715153 33.280065 -16.816750
LeftToeBase 9.165801 -0.000000 -0.000000
RightUpLeg -8.013513 -44.444149 1.027291
RightLeg 96.567791 -0.000000 -0.000000
RightFoot -22.981674 -14.187564 22.673798
RightToeBase -2.942729 -0.000000 0.000000
3576
root -3.603958 31.430843 -5.417275 13.387923 -17.209211 2.318206
Spine -4.247915 11.951090 -11.534236
Head 16.294440 20.931220 -7.050185
LeftShoulder -21.167351 17.924338 10.725360
LeftArm 8.252995 -44.049321 -74.237483
LeftForeArm -9.616009 -0.000000 108.221997
LeftHand -12.067410 -0.000000 27.392211
LeftHandThumb1 -26.253704 0.000000 33.147579
RightShoulder -0.691364 10.500706 -10.022228
RightArm 33.361315 -61.515489 67.054062
RightForeArm -29.147693 -0.000000 27.426965
RightHand -12.313119 -0.000000 14.506501
RightHandThumb1 -24.326973 -0.000000 -32.862282
LeftUpLeg -17.587083 -5.352162 -9.616344
LeftLeg 17.233793 -0.000000 -0.000000
LeftFoot -27.496875 32.980228 -16.687442
LeftToeBase 9.190028 -0.000000 -0.000000
RightUpLeg -8.195896 -42.530304 0.966957
RightLeg 96.703976 -0.000000 -0.000000
RightFoot -22.763916 -13.719024 22.790500
RightToeBase -0.559190 -0.000000 0.000000
3577
root -3.594105 31.439111 -5.438600 13.504571 -16.695222 2.338510
Spine -4.254667 11.652736 -11.440462
Head 16.407097 20.573719 -6.768361
LeftShoulder -21.033431 17.822739 10.876092
LeftArm 8.651630 -43.586131 -74.583932
LeftForeArm -9.315737 -0.000000 108.149206
LeftHand -11.958207 -0.000000 27.172461
LeftHandThumb1 -26.253704 0.000000 33.147579
RightShoulder -0.996800 10.215944 -9.992367
RightArm 32.928556 -61.103759 67.269427
RightForeArm -29.293273 -0.000000 27.422337
RightHand -12.359958 0.000000 14.541743
RightHandThumb1 -24.326973 -0.000000 -32.862282
LeftUpLeg -17.672568 -5.530381 -9.560121
LeftLeg 17.127591 -0.000000 -0.000000
LeftFoot -27.245187 32.682741 -16.492719
LeftToeBase 9.173000 -0.000000 -0.000000
RightUpLeg -8.325895 -40.423492 0.809080
RightLeg 96.859093 -0.000000 -0.000000
RightFoot -22.644113 -13.306761 23.100821
RightToeBase -0.263011 -0.000000 0.000000
3578
root -3.583933 31.446360 -5.459823 13.587613 -16.190543 2.367705
Spine -4.231655 11.317856 -11.342636
Head 16.544725 20.211111 -6.491236
LeftShoulder -20.894251 17.736475 11.033195
LeftArm 9.026043 -43.197645 -74.921013
LeftForeArm -9.127544 -0.000000 108.063638
LeftHand -11.939050 -0.000000 27.187733
LeftHandThumb1 -26.253704 0.000000 33.147579
RightShoulder -1.268340 9.924738 -9.989171
RightArm 32.504303 -60.672805 67.497530
RightForeArm -29.551261 0.000000 27.428882
RightHand -12.405341 -0.000000 14.504713
RightHandThumb1 -24.326973 -0.000000 -32.862282
LeftUpLeg -17.732715 -5.672853 -9.527461
LeftLeg 17.034296 -0.000000 -0.000000
LeftFoot -26.978797 32.403742 -16.285530
LeftToeBase 9.271692 -0.000000 -0.000000
RightUpLeg -8.436257 -38.103258 0.614578
RightLeg 97.012898 -0.000000 -0.000000
RightFoot -22.162380 -12.844251 23.220075
RightToeBase -0.069409 -0.000000 0.000000
3579
root -3.575073 31.452436 -5.474222 13.635101 -15.662439 2.403380
Spine -4.214038 10.896580 -11.226832
Head 16.782618 19.859462 -6.192493
LeftShoulder -20.740796 17.657171 11.187693
LeftArm 9.304555 -42.851040 -75.184747
LeftForeArm -8.812786 -0.000000 107.970323
LeftHand -11.910179 0.000000 27.440799
LeftHandThumb1 -26.253704 0.000000 33.147579
RightShoulder -1.495456 9.565577 -9.979326
RightArm 32.113018 -60.191706 67.729747
RightForeArm -29.578455 -0.000000 27.428938
RightHand -12.635792 0.000000 14.349521
RightHandThumb1 -24.326973 -0.000000 -32.862282
LeftUpLeg -17.729036 -5.863313 -9.498235
LeftLeg 16.903044 -0.000000 -0.000000
LeftFoot -26.694002 32.149279 -16.013714
LeftToeBase 9.239617 -0.000000 -0.000000
RightUpLeg -8.455694 -35.718004 0.315616
RightLeg 97.174125 -0.000000 -0.000000
RightFoot -21.373278 -12.137060 23.305382
RightToeBase 0.724627 -0.000000 -0.000000
